<svg width="19" height="15" viewBox="0 0 19 15" fill="none" xmlns="http://www.w3.org/2000/svg">
<path d="M0.833333 11.0523H4.07417L8.48583 14.8994C8.54687 14.9527 8.62088 14.9864 8.69922 14.9967C8.77757 15.0069 8.85703 14.9933 8.92837 14.9573C8.9997 14.9212 9.05997 14.8644 9.10216 14.7933C9.14435 14.7222 9.16672 14.6398 9.16667 14.5557V0.444329C9.16672 0.360211 9.14435 0.277807 9.10216 0.206712C9.05997 0.135616 8.9997 0.0787535 8.92837 0.0427437C8.85703 0.00673398 8.77757 -0.00694131 8.69922 0.00330987C8.62088 0.013561 8.54687 0.0473169 8.48583 0.100648L4.075 3.94774H0.833333C0.61232 3.94774 0.400358 4.04131 0.244078 4.20785C0.0877973 4.3744 0 4.60028 0 4.83581V10.1642C0 10.3997 0.0877973 10.6256 0.244078 10.7921C0.400358 10.9587 0.61232 11.0523 0.833333 11.0523ZM18.3333 7.5C18.3333 10.4235 17.1283 13.0468 15.2183 14.8372L14.0367 13.5779C14.8621 12.8284 15.5248 11.8967 15.9789 10.8472C16.4331 9.79776 16.6677 8.65566 16.6667 7.5C16.6678 6.34441 16.4333 5.20235 15.9793 4.1529C15.5254 3.10345 14.8628 2.17168 14.0375 1.42209L15.2183 0.162812C16.1982 1.07863 16.983 2.20706 17.5203 3.47248C18.0575 4.73791 18.3347 6.11109 18.3333 7.5ZM14.1667 7.5C14.1673 6.69408 13.996 5.89855 13.6659 5.17348C13.3357 4.44841 12.8553 3.81277 12.2608 3.31455L11.07 4.5836C11.5116 4.91055 11.8723 5.34661 12.1214 5.85449C12.3704 6.36237 12.5003 6.92696 12.5 7.5C12.5 8.70777 11.9342 9.77433 11.07 10.4164L12.2617 11.6863C12.8561 11.1879 13.3364 10.5521 13.6664 9.82689C13.9964 9.10166 14.1675 8.306 14.1667 7.5Z" fill="white"/>
</svg>
